<svg xmlns="http://www.w3.org/2000/svg">
    <symbol id="arrow-bottom" width="16" height="16" viewBox="0 0 16 16" fill="none">
        <path
            d="M13.5306 6.53063L8.5306 11.5306C8.46092 11.6005 8.37813 11.656 8.28696 11.6939C8.1958 11.7317 8.09806 11.7512 7.99935 11.7512C7.90064 11.7512 7.8029 11.7317 7.71173 11.6939C7.62057 11.656 7.53778 11.6005 7.4681 11.5306L2.4681 6.53063C2.3272 6.38973 2.24805 6.19864 2.24805 5.99938C2.24805 5.80012 2.3272 5.60902 2.4681 5.46813C2.60899 5.32723 2.80009 5.24808 2.99935 5.24808C3.19861 5.24808 3.3897 5.32723 3.5306 5.46813L7.99997 9.9375L12.4693 5.4675C12.6102 5.32661 12.8013 5.24745 13.0006 5.24745C13.1999 5.24745 13.391 5.32661 13.5318 5.4675C13.6727 5.6084 13.7519 5.7995 13.7519 5.99875C13.7519 6.19801 13.6727 6.38911 13.5318 6.53L13.5306 6.53063Z"
            fill="currentColor"
        />
    </symbol>
    <symbol id="search" width="21" height="21" viewBox="0 0 21 21" fill="none">
        <path
            d="M19.9399 18.348L15.4877 13.8939C16.8226 12.1544 17.4458 9.97216 17.2309 7.78998C17.0161 5.60781 15.9792 3.58907 14.3306 2.14328C12.6821 0.697486 10.5453 -0.0670986 8.35376 0.00462578C6.16221 0.0763502 4.07999 0.979013 2.5295 2.5295C0.979013 4.07999 0.0763502 6.16221 0.00462578 8.35376C-0.0670986 10.5453 0.697486 12.6821 2.14328 14.3306C3.58907 15.9792 5.60781 17.0161 7.78998 17.2309C9.97216 17.4458 12.1544 16.8226 13.8939 15.4877L18.3499 19.9445C18.4545 20.0492 18.5787 20.1322 18.7155 20.1888C18.8522 20.2455 18.9987 20.2746 19.1467 20.2746C19.2947 20.2746 19.4413 20.2455 19.578 20.1888C19.7147 20.1322 19.839 20.0492 19.9436 19.9445C20.0482 19.8399 20.1313 19.7157 20.1879 19.5789C20.2445 19.4422 20.2737 19.2957 20.2737 19.1477C20.2737 18.9997 20.2445 18.8531 20.1879 18.7164C20.1313 18.5797 20.0482 18.4554 19.9436 18.3508L19.9399 18.348ZM2.26891 8.64392C2.26891 7.38306 2.6428 6.15052 3.3433 5.10215C4.04379 4.05379 5.03943 3.23669 6.20431 2.75418C7.36919 2.27167 8.65099 2.14543 9.88762 2.39141C11.1242 2.63739 12.2602 3.24455 13.1517 4.13611C14.0433 5.02767 14.6504 6.16359 14.8964 7.40021C15.1424 8.63684 15.0162 9.91864 14.5336 11.0835C14.0511 12.2484 13.234 13.244 12.1857 13.9445C11.1373 14.645 9.90477 15.0189 8.64392 15.0189C6.95369 15.0172 5.3332 14.345 4.13803 13.1498C2.94286 11.9546 2.27065 10.3341 2.26891 8.64392Z"
            fill="black" fill-opacity="0.4" />
    </symbol>
    <symbol id="basket" width="23" height="21" viewBox="0 0 23 21" fill="none">
        <path
            d="M9.375 18.375C9.375 18.7458 9.26503 19.1084 9.059 19.4167C8.85298 19.725 8.56014 19.9654 8.21753 20.1073C7.87492 20.2492 7.49792 20.2863 7.1342 20.214C6.77049 20.1416 6.4364 19.963 6.17417 19.7008C5.91195 19.4386 5.73337 19.1045 5.66103 18.7408C5.58868 18.3771 5.62581 18.0001 5.76773 17.6575C5.90964 17.3149 6.14996 17.022 6.45831 16.816C6.76665 16.61 7.12916 16.5 7.5 16.5C7.99728 16.5 8.47419 16.6975 8.82582 17.0492C9.17745 17.4008 9.375 17.8777 9.375 18.375ZM17.25 16.5C16.8792 16.5 16.5166 16.61 16.2083 16.816C15.9 17.022 15.6596 17.3149 15.5177 17.6575C15.3758 18.0001 15.3387 18.3771 15.411 18.7408C15.4834 19.1045 15.662 19.4386 15.9242 19.7008C16.1864 19.963 16.5205 20.1416 16.8842 20.214C17.2479 20.2863 17.6249 20.2492 17.9675 20.1073C18.3101 19.9654 18.603 19.725 18.809 19.4167C19.015 19.1084 19.125 18.7458 19.125 18.375C19.125 17.8777 18.9275 17.4008 18.5758 17.0492C18.2242 16.6975 17.7473 16.5 17.25 16.5ZM22.0753 5.20594L19.5169 13.5216C19.3535 14.0593 19.0211 14.5301 18.569 14.864C18.1169 15.1979 17.5692 15.3771 17.0072 15.375H7.77469C7.2046 15.3732 6.65046 15.1866 6.1953 14.8433C5.74015 14.5001 5.40848 14.0186 5.25 13.4709L2.04469 2.25H1.125C0.826631 2.25 0.540483 2.13147 0.329505 1.9205C0.118526 1.70952 0 1.42337 0 1.125C0 0.826631 0.118526 0.540483 0.329505 0.329505C0.540483 0.118526 0.826631 0 1.125 0H2.32687C2.73407 0.00125797 3.12988 0.134515 3.45493 0.379779C3.77998 0.625044 4.01674 0.969093 4.12969 1.36031L4.81312 3.75H21C21.1761 3.74999 21.3497 3.7913 21.5069 3.87061C21.664 3.94992 21.8004 4.06501 21.905 4.20664C22.0096 4.34826 22.0795 4.51246 22.1091 4.68602C22.1387 4.85958 22.1271 5.03766 22.0753 5.20594ZM19.4766 6H5.45531L7.41375 12.8531C7.43617 12.9315 7.48354 13.0005 7.54867 13.0495C7.6138 13.0986 7.69315 13.1251 7.77469 13.125H17.0072C17.0875 13.1252 17.1656 13.0996 17.2303 13.052C17.2949 13.0044 17.3426 12.9373 17.3662 12.8606L19.4766 6Z"
            fill="currentColor" />
    </symbol>
    <symbol id="client" width="24" height="24" viewBox="0 0 24 24" fill="none">
        <path
            d="M12 1.875C9.99747 1.875 8.0399 2.46882 6.37486 3.58137C4.70981 4.69392 3.41206 6.27523 2.64572 8.12533C1.87939 9.97543 1.67888 12.0112 2.06955 13.9753C2.46023 15.9393 3.42454 17.7435 4.84055 19.1595C6.25656 20.5755 8.06066 21.5398 10.0247 21.9305C11.9888 22.3211 14.0246 22.1206 15.8747 21.3543C17.7248 20.5879 19.3061 19.2902 20.4186 17.6251C21.5312 15.9601 22.125 14.0025 22.125 12C22.122 9.3156 21.0543 6.74199 19.1562 4.84383C17.258 2.94567 14.6844 1.87798 12 1.875ZM7.45969 18.4284C7.98195 17.7143 8.66528 17.1335 9.45418 16.7331C10.2431 16.3327 11.1153 16.124 12 16.124C12.8847 16.124 13.7569 16.3327 14.5458 16.7331C15.3347 17.1335 16.0181 17.7143 16.5403 18.4284C15.2134 19.3695 13.6268 19.875 12 19.875C10.3732 19.875 8.78665 19.3695 7.45969 18.4284ZM9.375 11.25C9.375 10.7308 9.52896 10.2233 9.8174 9.79163C10.1058 9.35995 10.5158 9.0235 10.9955 8.82482C11.4751 8.62614 12.0029 8.57415 12.5121 8.67544C13.0213 8.77672 13.489 9.02673 13.8562 9.39384C14.2233 9.76096 14.4733 10.2287 14.5746 10.7379C14.6759 11.2471 14.6239 11.7749 14.4252 12.2545C14.2265 12.7342 13.8901 13.1442 13.4584 13.4326C13.0267 13.721 12.5192 13.875 12 13.875C11.3038 13.875 10.6361 13.5984 10.1438 13.1062C9.65157 12.6139 9.375 11.9462 9.375 11.25ZM18.1875 16.8694C17.4583 15.9419 16.5289 15.1914 15.4688 14.6737C16.1444 13.9896 16.6026 13.1208 16.7858 12.1769C16.9689 11.2329 16.8688 10.2558 16.498 9.36861C16.1273 8.4814 15.5024 7.72364 14.702 7.19068C13.9017 6.65771 12.9616 6.37334 12 6.37334C11.0384 6.37334 10.0983 6.65771 9.29797 7.19068C8.49762 7.72364 7.87275 8.4814 7.50198 9.36861C7.13121 10.2558 7.0311 11.2329 7.21424 12.1769C7.39739 13.1208 7.85561 13.9896 8.53125 14.6737C7.4711 15.1914 6.54168 15.9419 5.8125 16.8694C4.89661 15.7083 4.32614 14.3129 4.1664 12.8427C4.00665 11.3725 4.2641 9.88711 4.90925 8.55644C5.55441 7.22578 6.5612 6.10366 7.81439 5.31855C9.06757 4.53343 10.5165 4.11703 11.9953 4.11703C13.4741 4.11703 14.9231 4.53343 16.1762 5.31855C17.4294 6.10366 18.4362 7.22578 19.0814 8.55644C19.7265 9.88711 19.984 11.3725 19.8242 12.8427C19.6645 14.3129 19.094 15.7083 18.1781 16.8694H18.1875Z"
            fill="currentColor"
        />
    </symbol>

    <symbol id="arrow-right" width="24" height="24" viewBox="0 0 24 24" fill="none">
        <path
            d="M14.2959 4.4541L21.0459 11.2041C21.1508 11.3086 21.234 11.4328 21.2908 11.5696C21.3476 11.7063 21.3768 11.8529 21.3768 12.001C21.3768 12.149 21.3476 12.2957 21.2908 12.4324C21.234 12.5691 21.1508 12.6933 21.0459 12.7979L14.2959 19.5479C14.0846 19.7592 13.7979 19.8779 13.4991 19.8779C13.2002 19.8779 12.9135 19.7592 12.7022 19.5479C12.4908 19.3365 12.3721 19.0499 12.3721 18.751C12.3721 18.4521 12.4908 18.1654 12.7022 17.9541L17.5313 13.125L3.75 13.125C3.45163 13.125 3.16548 13.0065 2.9545 12.7955C2.74353 12.5846 2.625 12.2984 2.625 12C2.625 11.7017 2.74353 11.4155 2.95451 11.2045C3.16548 10.9936 3.45163 10.875 3.75 10.875L17.5313 10.875L12.7013 6.04598C12.4899 5.83463 12.3712 5.54799 12.3712 5.2491C12.3712 4.95022 12.4899 4.66357 12.7013 4.45223C12.9126 4.24088 13.1992 4.12215 13.4981 4.12215C13.797 4.12215 14.0837 4.24088 14.295 4.45223L14.2959 4.4541Z"
            fill="black" />
    </symbol>
    <symbol id="arrow-left" width="24" height="24" viewBox="0 0 24 24" fill="none">
        <path
            d="M9.70406 4.4541L2.95406 11.2041C2.84918 11.3086 2.76597 11.4328 2.70919 11.5696C2.6524 11.7063 2.62317 11.8529 2.62317 12.001C2.62317 12.149 2.6524 12.2957 2.70919 12.4324C2.76597 12.5691 2.84918 12.6933 2.95406 12.7979L9.70406 19.5479C9.91541 19.7592 10.2021 19.8779 10.5009 19.8779C10.7998 19.8779 11.0865 19.7592 11.2978 19.5479C11.5092 19.3365 11.6279 19.0499 11.6279 18.751C11.6279 18.4521 11.5092 18.1654 11.2978 17.9541L6.46875 13.125L20.25 13.125C20.5484 13.125 20.8345 13.0065 21.0455 12.7955C21.2565 12.5846 21.375 12.2984 21.375 12C21.375 11.7017 21.2565 11.4155 21.0455 11.2045C20.8345 10.9936 20.5484 10.875 20.25 10.875L6.46875 10.875L11.2988 6.04598C11.5101 5.83463 11.6288 5.54799 11.6288 5.2491C11.6288 4.95022 11.5101 4.66357 11.2988 4.45223C11.0874 4.24088 10.8008 4.12215 10.5019 4.12215C10.203 4.12215 9.91634 4.24088 9.705 4.45223L9.70406 4.4541Z"
            fill="black" />
    </symbol>
    <symbol id="ok" width="24" height="24" viewBox="0 0 24 24" fill="none">
        <path
            d="M12 2.25C10.0716 2.25 8.18657 2.82183 6.58319 3.89317C4.97982 4.96451 3.73013 6.48726 2.99218 8.26884C2.25422 10.0504 2.06114 12.0108 2.43735 13.9021C2.81355 15.7934 3.74215 17.5307 5.10571 18.8943C6.46928 20.2579 8.20656 21.1865 10.0979 21.5627C11.9892 21.9389 13.9496 21.7458 15.7312 21.0078C17.5127 20.2699 19.0355 19.0202 20.1068 17.4168C21.1782 15.8134 21.75 13.9284 21.75 12C21.7473 9.41498 20.7192 6.93661 18.8913 5.10872C17.0634 3.28084 14.585 2.25273 12 2.25ZM16.2806 10.2806L11.0306 15.5306C10.961 15.6004 10.8783 15.6557 10.7872 15.6934C10.6962 15.7312 10.5986 15.7506 10.5 15.7506C10.4014 15.7506 10.3038 15.7312 10.2128 15.6934C10.1218 15.6557 10.039 15.6004 9.96938 15.5306L7.71938 13.2806C7.57865 13.1399 7.49959 12.949 7.49959 12.75C7.49959 12.551 7.57865 12.3601 7.71938 12.2194C7.86011 12.0786 8.05098 11.9996 8.25 11.9996C8.44903 11.9996 8.6399 12.0786 8.78063 12.2194L10.5 13.9397L15.2194 9.21937C15.2891 9.14969 15.3718 9.09442 15.4628 9.0567C15.5539 9.01899 15.6515 8.99958 15.75 8.99958C15.8486 8.99958 15.9461 9.01899 16.0372 9.0567C16.1282 9.09442 16.2109 9.14969 16.2806 9.21937C16.3503 9.28906 16.4056 9.37178 16.4433 9.46283C16.481 9.55387 16.5004 9.65145 16.5004 9.75C16.5004 9.84855 16.481 9.94613 16.4433 10.0372C16.4056 10.1282 16.3503 10.2109 16.2806 10.2806Z"
            fill="#01AB31" />
    </symbol>
    <symbol id="envelope" width="24" height="24" viewBox="0 0 24 24" fill="none">
        <path
            d="M21 4.125H3C2.70163 4.125 2.41548 4.24353 2.2045 4.4545C1.99353 4.66548 1.875 4.95163 1.875 5.25V18C1.875 18.4973 2.07254 18.9742 2.42417 19.3258C2.77581 19.6775 3.25272 19.875 3.75 19.875H20.25C20.7473 19.875 21.2242 19.6775 21.5758 19.3258C21.9275 18.9742 22.125 18.4973 22.125 18V5.25C22.125 4.95163 22.0065 4.66548 21.7955 4.4545C21.5845 4.24353 21.2984 4.125 21 4.125ZM12 11.9738L5.89219 6.375H18.1078L12 11.9738ZM8.69906 12L4.125 16.1925V7.8075L8.69906 12ZM10.3641 13.5262L11.2397 14.3297C11.4472 14.52 11.7185 14.6255 12 14.6255C12.2815 14.6255 12.5528 14.52 12.7603 14.3297L13.6359 13.5262L18.1078 17.625H5.89219L10.3641 13.5262ZM15.3009 12L19.875 7.8075V16.1925L15.3009 12Z"
            fill="black" fill-opacity="0.4" />
    </symbol>
</svg>